<svg xmlns="http://www.w3.org/2000/svg" viewBox="0 0 64 64"><path fill="none" stroke="#e5e7eb" stroke-linejoin="round" stroke-width="3" d="M46.5,31.5l-.32,0a10.49,10.49,0,0,0-19.11-8,7,7,0,0,0-10.57,6,7.21,7.21,0,0,0,.1,1.14A7.5,7.5,0,0,0,18,45.5a4.19,4.19,0,0,0,.5,0v0h28a7,7,0,0,0,0-14Z"/><g><line x1="17" x2="21.5" y1="58" y2="58" fill="none" stroke="#d1d5db" stroke-linecap="round" stroke-miterlimit="10" stroke-width="3"/><line x1="28.5" x2="39" y1="58" y2="58" fill="none" stroke="#d1d5db" stroke-dasharray="7 7" stroke-linecap="round" stroke-miterlimit="10" stroke-width="3"/><line x1="42.5" x2="47" y1="58" y2="58" fill="none" stroke="#d1d5db" stroke-linecap="round" stroke-miterlimit="10" stroke-width="3"/><animateTransform attributeName="transform" begin="0s" dur="5s" repeatCount="indefinite" type="translate" values="-3 0; 3 0; -3 0"/></g><g><line x1="17" x2="21.5" y1="52" y2="52" fill="none" stroke="#d1d5db" stroke-linecap="round" stroke-miterlimit="10" stroke-width="3"/><line x1="28.5" x2="39" y1="52" y2="52" fill="none" stroke="#d1d5db" stroke-dasharray="7 7" stroke-linecap="round" stroke-miterlimit="10" stroke-width="3"/><line x1="42.5" x2="47" y1="52" y2="52" fill="none" stroke="#d1d5db" stroke-linecap="round" stroke-miterlimit="10" stroke-width="3"/><animateTransform attributeName="transform" begin="-4s" dur="5s" repeatCount="indefinite" type="translate" values="-3 0; 3 0; -3 0"/></g></svg>